# xmcd
#
# Track frame offsets: 
#        150
#        5317
#        15640
#        18010
#        20173
#        22327
#        33449
#        45623
#        50273
#        60656
#        71153
#        73865
#        84283
#        97008
#        99180
#        111274
#        122107
#        132872
#        148202
#        153276
#        155399
#        167593
#        169930
#        180787
#        191666
#        198739
#        201025
#        206657
#        208498
#        219017
#        234411
#        247600
#        256795
#
# Disc length: 3524 seconds
#
# Revision: 2
# Processed by: cddbd v1.5.2PL0 Copyright (c) Steve Scherf et al.
# Submitted via: ExactAudioCopy v0.99pb3
#
DISCID=c50dc221
DTITLE=Music Together - MARACAS Song Collection
DYEAR=2002
DGENRE=Kids' Folk
TTITLE0=Hello Song
TTITLE1=Jumpin' Rosie
TTITLE2=Tonal Patterns
TTITLE3=Pease Porridge Hot
TTITLE4=Rhythm Patterns
TTITLE5=Wiggle
TTITLE6=Tricks with Sticks
TTITLE7=William Tell's Ride
TTITLE8=I'm a Bell
TTITLE9=Doodle
TTITLE10=Tonal Patterns
TTITLE11=Hop Ol' Squirrel
TTITLE12=Tsakonikos
TTITLE13=Rhythm Patterns
TTITLE14=Frere Jacques
TTITLE15=Bim Bam
TTITLE16=Su La Li
TTITLE17=Goin' for Coffee
TTITLE18=Five Little Mice
TTITLE19=Rhythm Patterns
TTITLE20=Dancing with Teddy
TTITLE21=Tonal Patterns
TTITLE22=Brincan y Bailan
TTITLE23=Dum Ditty Dum
TTITLE24=The Sad Little Puppy
TTITLE25=Tonal Patterns
TTITLE26=Jack Be Nimble
TTITLE27=Rhythm Patterns
TTITLE28=Cloud Song
TTITLE29=Play the Drum
TTITLE30=Good News
TTITLE31=Husha My Baby
TTITLE32=Goodbye, So Long, Farewell
EXTD=
EXTT0=
EXTT1=
EXTT2=
EXTT3=
EXTT4=
EXTT5=
EXTT6=
EXTT7=
EXTT8=
EXTT9=
EXTT10=
EXTT11=
EXTT12=
EXTT13=
EXTT14=
EXTT15=
EXTT16=
EXTT17=
EXTT18=
EXTT19=
EXTT20=
EXTT21=
EXTT22=
EXTT23=
EXTT24=
EXTT25=
EXTT26=
EXTT27=
EXTT28=
EXTT29=
EXTT30=
EXTT31=
EXTT32=
PLAYORDER=
